<?xml version="1.0" encoding="UTF-8" standalone="no"?>
<!-- Created with Inkscape (http://www.inkscape.org/) -->

<svg
   width="512"
   height="512"
   viewBox="0 0 135.46666 135.46667"
   version="1.1"
   id="svg1"
   xml:space="preserve"
   inkscape:export-filename="StockedIcon.png"
   inkscape:export-xdpi="96"
   inkscape:export-ydpi="96"
   inkscape:version="1.3.2 (091e20e, 2023-11-25)"
   sodipodi:docname="icon2.svg"
   xmlns:inkscape="http://www.inkscape.org/namespaces/inkscape"
   xmlns:sodipodi="http://sodipodi.sourceforge.net/DTD/sodipodi-0.dtd"
   xmlns="http://www.w3.org/2000/svg"
   xmlns:svg="http://www.w3.org/2000/svg"><sodipodi:namedview
     id="namedview1"
     pagecolor="#505050"
     bordercolor="#ffffff"
     borderopacity="1"
     inkscape:showpageshadow="0"
     inkscape:pageopacity="0"
     inkscape:pagecheckerboard="1"
     inkscape:deskcolor="#505050"
     inkscape:document-units="mm"
     inkscape:zoom="1.0134828"
     inkscape:cx="129.25726"
     inkscape:cy="201.77946"
     inkscape:window-width="2240"
     inkscape:window-height="1104"
     inkscape:window-x="0"
     inkscape:window-y="30"
     inkscape:window-maximized="1"
     inkscape:current-layer="layer1" /><defs
     id="defs1"><clipPath
       clipPathUnits="userSpaceOnUse"
       id="clipPath49"><path
         d="M 0,807 H 712 V 0 H 0 Z"
         transform="matrix(1.3333333,0,0,-1.3333333,0,1076)"
         id="path49" /></clipPath><mask
       maskUnits="userSpaceOnUse"
       x="0"
       y="0"
       width="1"
       height="1"
       id="mask3"><path
         id="path4"
         d="m 163.75,548.25 h 384.5 v -384.5 h -384.5 z"
         style="fill:#000000;fill-opacity:1;fill-rule:nonzero;stroke:none"
         transform="matrix(1.3333333,0,0,-1.3333333,0,1076)"
         clip-path="url(#clipPath5)" /><g
         id="g7"
         clip-path="url(#clipPath8)"><path
           d="M 99.917,612.083 H 612.586 V 99.414 H 99.917 Z"
           style="fill:#ffffff icc-color(sRGB-IEC61966-2, 0.1, 1, 1, 1);fill-opacity:1;fill-rule:nonzero;stroke:none"
           transform="matrix(1.3333333,0,0,-1.3333333,0,1076)"
           clip-path="url(#clipPath6)"
           id="path7" /></g></mask><clipPath
       clipPathUnits="userSpaceOnUse"
       id="clipPath5"><path
         d="m 163.75,548.25 h 384.5 v -384.5 h -384.5 z"
         id="path5" /></clipPath><clipPath
       clipPathUnits="userSpaceOnUse"
       id="clipPath8"><path
         d="m 163.75,548.25 h 384.5 v -384.5 h -384.5 z"
         transform="matrix(1.3333333,0,0,-1.3333333,0,1076)"
         id="path8" /></clipPath><clipPath
       clipPathUnits="userSpaceOnUse"
       id="clipPath6"><path
         d="m 163.75,548.25 h 384.5 v -384.5 h -384.5 z"
         id="path6" /></clipPath><clipPath
       clipPathUnits="userSpaceOnUse"
       id="clipPath10"><path
         d="m 163.75,548.25 h 384.5 v -384.5 h -384.5 z"
         transform="matrix(1.3333333,0,0,-1.3333333,0,1076)"
         id="path10" /></clipPath><clipPath
       clipPathUnits="userSpaceOnUse"
       id="clipPath9"><path
         d="M 164,548 H 548 V 164 H 164 Z"
         id="path9" /></clipPath><clipPath
       clipPathUnits="userSpaceOnUse"
       id="clipPath11"><path
         d="m 163.75,548.25 h 384.5 v -384.5 h -384.5 z"
         id="path11" /></clipPath><clipPath
       clipPathUnits="userSpaceOnUse"
       id="clipPath12"><path
         d="m 163.75,548.25 h 384.5 v -384.5 h -384.5 z"
         transform="translate(-183.0039,-484.00001)"
         id="path12" /></clipPath><clipPath
       clipPathUnits="userSpaceOnUse"
       id="clipPath13"><path
         d="m 163.75,548.25 h 384.5 v -384.5 h -384.5 z"
         transform="translate(-231.00391,-532.00001)"
         id="path13" /></clipPath><clipPath
       clipPathUnits="userSpaceOnUse"
       id="clipPath14"><path
         d="m 163.75,548.25 h 384.5 v -384.5 h -384.5 z"
         transform="translate(-207.00391,-508.00001)"
         id="path14" /></clipPath><clipPath
       clipPathUnits="userSpaceOnUse"
       id="clipPath15"><path
         d="m 163.75,548.25 h 384.5 v -384.5 h -384.5 z"
         transform="translate(-356.00001,-532.00001)"
         id="path15" /></clipPath><clipPath
       clipPathUnits="userSpaceOnUse"
       id="clipPath16"><path
         d="m 163.75,548.25 h 384.5 v -384.5 h -384.5 z"
         transform="translate(-356.00001,-436.00001)"
         id="path16" /></clipPath><clipPath
       clipPathUnits="userSpaceOnUse"
       id="clipPath18"><path
         d="m 163.75,548.25 h 384.5 v -384.5 h -384.5 z"
         transform="matrix(1.3333333,0,0,-1.3333333,0,1076)"
         id="path18" /></clipPath><clipPath
       clipPathUnits="userSpaceOnUse"
       id="clipPath17"><path
         d="M 164.066,547.968 H 547.999 V 163.956 H 164.066 Z"
         transform="translate(-164.41941,-164.30961)"
         id="path17" /></clipPath><clipPath
       clipPathUnits="userSpaceOnUse"
       id="clipPath20"><path
         d="m 163.75,548.25 h 384.5 v -384.5 h -384.5 z"
         transform="matrix(1.3333333,0,0,-1.3333333,0,1076)"
         id="path20" /></clipPath><clipPath
       clipPathUnits="userSpaceOnUse"
       id="clipPath19"><path
         d="M 164.02,547.93 H 547.835 V 164.176 H 164.02 Z"
         transform="translate(-547.48141,-164.5293)"
         id="path19" /></clipPath><clipPath
       clipPathUnits="userSpaceOnUse"
       id="clipPath22"><path
         d="m 163.75,548.25 h 384.5 v -384.5 h -384.5 z"
         transform="matrix(1.3333333,0,0,-1.3333333,0,1076)"
         id="path22" /></clipPath><clipPath
       clipPathUnits="userSpaceOnUse"
       id="clipPath21"><path
         d="m 299.75,548.25 h 0.5 v -384.5 h -0.5 z"
         transform="translate(-300.00001,-548.00002)"
         id="path21" /></clipPath><clipPath
       clipPathUnits="userSpaceOnUse"
       id="clipPath24"><path
         d="m 163.75,548.25 h 384.5 v -384.5 h -384.5 z"
         transform="matrix(1.3333333,0,0,-1.3333333,0,1076)"
         id="path24" /></clipPath><clipPath
       clipPathUnits="userSpaceOnUse"
       id="clipPath23"><path
         d="m 355.75,548.25 h 0.5 v -384.5 h -0.5 z"
         transform="translate(-356.00001,-548.00002)"
         id="path23" /></clipPath><clipPath
       clipPathUnits="userSpaceOnUse"
       id="clipPath26"><path
         d="m 163.75,548.25 h 384.5 v -384.5 h -384.5 z"
         transform="matrix(1.3333333,0,0,-1.3333333,0,1076)"
         id="path26" /></clipPath><clipPath
       clipPathUnits="userSpaceOnUse"
       id="clipPath25"><path
         d="m 411.83,548.25 h 0.5 v -384.5 h -0.5 z"
         transform="translate(-412.08011,-548.00002)"
         id="path25" /></clipPath><clipPath
       clipPathUnits="userSpaceOnUse"
       id="clipPath28"><path
         d="m 163.75,548.25 h 384.5 v -384.5 h -384.5 z"
         transform="matrix(1.3333333,0,0,-1.3333333,0,1076)"
         id="path28" /></clipPath><clipPath
       clipPathUnits="userSpaceOnUse"
       id="clipPath27"><path
         d="m 163.9,412.1 h 383.933 v -0.2 H 163.9 Z"
         transform="translate(-547.73341,-412.00001)"
         id="path27" /></clipPath><clipPath
       clipPathUnits="userSpaceOnUse"
       id="clipPath30"><path
         d="m 163.75,548.25 h 384.5 v -384.5 h -384.5 z"
         transform="matrix(1.3333333,0,0,-1.3333333,0,1076)"
         id="path30" /></clipPath><clipPath
       clipPathUnits="userSpaceOnUse"
       id="clipPath29"><path
         d="m 163.9,356.1 h 383.933 v -0.2 H 163.9 Z"
         transform="translate(-547.73341,-356.00001)"
         id="path29" /></clipPath><clipPath
       clipPathUnits="userSpaceOnUse"
       id="clipPath32"><path
         d="m 163.75,548.25 h 384.5 v -384.5 h -384.5 z"
         transform="matrix(1.3333333,0,0,-1.3333333,0,1076)"
         id="path32" /></clipPath><clipPath
       clipPathUnits="userSpaceOnUse"
       id="clipPath31"><path
         d="m 163.75,300.25 h 384.233 v -0.5 H 163.75 Z"
         transform="translate(-547.73341,-300.00001)"
         id="path31" /></clipPath></defs><g
     inkscape:label="Calque 1"
     inkscape:groupmode="layer"
     id="layer1"><rect
       style="fill:#353f47;fill-opacity:1;stroke:none;stroke-width:1.49293;stroke-linecap:round;stroke-linejoin:round"
       id="rect1"
       width="135.46695"
       height="135.46577"
       x="0.00038832618"
       y="0.0016738795" /><g
       mask="url(#mask3)"
       id="g49"
       clip-path="url(#clipPath49)"
       transform="matrix(0.26458333,0,0,0.26458333,-57.855554,-91.369449)"
       style="display:none"><g
         id="g48"><g
           opacity="0.100006"
           clip-path="url(#clipPath10)"
           id="g33"><path
             d="M 164,548 H 548 V 164 H 164 Z"
             style="fill:#66ddb7 icc-color(sRGB-IEC61966-2, 0.1, 0.3999939, 0.86698914, 0.71798706);fill-opacity:1;fill-rule:nonzero;stroke:none"
             transform="matrix(1.3333333,0,0,-1.3333333,0,1076)"
             clip-path="url(#clipPath9)"
             id="path33" /></g><path
           d="M 164,548 H 548 V 164 H 164 Z"
           style="fill:none;stroke:#65dcb7 icc-color(sRGB-IEC61966-2, 0.1, 0.39599609, 0.86299133, 0.71798706);stroke-width:0.5;stroke-linecap:butt;stroke-linejoin:miter;stroke-miterlimit:4;stroke-dasharray:none;stroke-opacity:1"
           transform="matrix(1.3333333,0,0,-1.3333333,0,1076)"
           clip-path="url(#clipPath11)"
           id="path34" /><path
           d="m 0,0 h 345.992 c 1.659,0 3.004,-1.345 3.004,-3.004 v -249.992 c 0,-1.659 -1.345,-3.004 -3.004,-3.004 L 0,-256 c -1.659,0 -3.004,1.345 -3.004,3.004 V -3.004 C -3.004,-1.345 -1.659,0 0,0 Z"
           style="fill:none;stroke:#65dcb7 icc-color(sRGB-IEC61966-2, 0.1, 0.39599609, 0.86299133, 0.71798706);stroke-width:0.5;stroke-linecap:butt;stroke-linejoin:miter;stroke-miterlimit:4;stroke-dasharray:none;stroke-opacity:1"
           transform="matrix(1.3333333,0,0,-1.3333333,244.0052,430.66667)"
           clip-path="url(#clipPath12)"
           id="path35" /><path
           d="m 0,0 h 249.992 c 1.659,0 3.004,-1.345 3.004,-3.004 v -345.992 c 0,-1.659 -1.345,-3.004 -3.004,-3.004 L 0,-352 c -1.659,0 -3.004,1.345 -3.004,3.004 V -3.004 C -3.004,-1.345 -1.659,0 0,0 Z"
           style="fill:none;stroke:#65dcb7 icc-color(sRGB-IEC61966-2, 0.1, 0.39599609, 0.86299133, 0.71798706);stroke-width:0.5;stroke-linecap:butt;stroke-linejoin:miter;stroke-miterlimit:4;stroke-dasharray:none;stroke-opacity:1"
           transform="matrix(1.3333333,0,0,-1.3333333,308.0052,366.66667)"
           clip-path="url(#clipPath13)"
           id="path36" /><path
           d="m 0,0 h 297.992 c 1.659,0 3.004,-1.345 3.004,-3.004 v -297.992 c 0,-1.659 -1.345,-3.004 -3.004,-3.004 L 0,-304 c -1.659,0 -3.004,1.345 -3.004,3.004 V -3.004 C -3.004,-1.345 -1.659,0 0,0 Z"
           style="fill:none;stroke:#65dcb7 icc-color(sRGB-IEC61966-2, 0.1, 0.39599609, 0.86299133, 0.71798706);stroke-width:0.5;stroke-linecap:butt;stroke-linejoin:miter;stroke-miterlimit:4;stroke-dasharray:none;stroke-opacity:1"
           transform="matrix(1.3333333,0,0,-1.3333333,276.0052,398.66667)"
           clip-path="url(#clipPath14)"
           id="path37" /><path
           d="m 0,0 c 97.202,0 176,-78.798 176,-176 0,-97.202 -78.798,-176 -176,-176 -97.202,0 -176,78.798 -176,176 0,97.202 78.798,176 176,176 z"
           style="fill:none;stroke:#65dcb7 icc-color(sRGB-IEC61966-2, 0.1, 0.39599609, 0.86299133, 0.71798706);stroke-width:0.5;stroke-linecap:butt;stroke-linejoin:miter;stroke-miterlimit:4;stroke-dasharray:none;stroke-opacity:1"
           transform="matrix(1.3333333,0,0,-1.3333333,474.66667,366.66667)"
           clip-path="url(#clipPath15)"
           id="path38" /><path
           d="m 0,0 c 44.183,0 80,-35.817 80,-80 0,-44.183 -35.817,-80 -80,-80 -44.183,0 -80,35.817 -80,80 0,44.183 35.817,80 80,80 z"
           style="fill:none;stroke:#65dcb7 icc-color(sRGB-IEC61966-2, 0.1, 0.39599609, 0.86299133, 0.71798706);stroke-width:0.5;stroke-linecap:butt;stroke-linejoin:miter;stroke-miterlimit:4;stroke-dasharray:none;stroke-opacity:1"
           transform="matrix(1.3333333,0,0,-1.3333333,474.66667,494.66667)"
           clip-path="url(#clipPath16)"
           id="path39" /><g
           opacity="0.300003"
           clip-path="url(#clipPath18)"
           id="g40"><path
             d="M 0,0 383.226,383.305"
             style="fill:none;stroke:#65dcb7 icc-color(sRGB-IEC61966-2, 0.1, 0.39599609, 0.86299133, 0.71798706);stroke-width:0.5;stroke-linecap:square;stroke-linejoin:miter;stroke-miterlimit:4;stroke-dasharray:none;stroke-opacity:1"
             transform="matrix(1.3333333,0,0,-1.3333333,219.22587,856.92053)"
             clip-path="url(#clipPath17)"
             id="path40" /></g><g
           opacity="0.300003"
           clip-path="url(#clipPath20)"
           id="g41"><path
             d="M 0,0 -383.107,383.047"
             style="fill:none;stroke:#65dcb7 icc-color(sRGB-IEC61966-2, 0.1, 0.39599609, 0.86299133, 0.71798706);stroke-width:0.5;stroke-linecap:square;stroke-linejoin:miter;stroke-miterlimit:4;stroke-dasharray:none;stroke-opacity:1"
             transform="matrix(1.3333333,0,0,-1.3333333,729.9752,856.6276)"
             clip-path="url(#clipPath19)"
             id="path41" /></g><g
           opacity="0.300003"
           clip-path="url(#clipPath22)"
           id="g42"><path
             d="M 0,0 V -384"
             style="fill:none;stroke:#65dcb7 icc-color(sRGB-IEC61966-2, 0.1, 0.39599609, 0.86299133, 0.71798706);stroke-width:0.5;stroke-linecap:square;stroke-linejoin:miter;stroke-miterlimit:4;stroke-dasharray:none;stroke-opacity:1"
             transform="matrix(1.3333333,0,0,-1.3333333,400,345.33333)"
             clip-path="url(#clipPath21)"
             id="path42" /></g><g
           opacity="0.300003"
           clip-path="url(#clipPath24)"
           id="g43"><path
             d="M 0,0 V -384"
             style="fill:none;stroke:#65dcb7 icc-color(sRGB-IEC61966-2, 0.1, 0.39599609, 0.86299133, 0.71798706);stroke-width:0.5;stroke-linecap:square;stroke-linejoin:miter;stroke-miterlimit:4;stroke-dasharray:none;stroke-opacity:1"
             transform="matrix(1.3333333,0,0,-1.3333333,474.66667,345.33333)"
             clip-path="url(#clipPath23)"
             id="path43" /></g><g
           opacity="0.300003"
           clip-path="url(#clipPath26)"
           id="g44"><path
             d="M 0,0 V -384"
             style="fill:none;stroke:#65dcb7 icc-color(sRGB-IEC61966-2, 0.1, 0.39599609, 0.86299133, 0.71798706);stroke-width:0.5;stroke-linecap:square;stroke-linejoin:miter;stroke-miterlimit:4;stroke-dasharray:none;stroke-opacity:1"
             transform="matrix(1.3333333,0,0,-1.3333333,549.44013,345.33333)"
             clip-path="url(#clipPath25)"
             id="path44" /></g><g
           opacity="0.300003"
           clip-path="url(#clipPath28)"
           id="g45"><path
             d="M 0,0 H -383.733"
             style="fill:none;stroke:#65dcb7 icc-color(sRGB-IEC61966-2, 0.1, 0.39599609, 0.86299133, 0.71798706);stroke-width:0.2;stroke-linecap:square;stroke-linejoin:miter;stroke-miterlimit:4;stroke-dasharray:none;stroke-opacity:1"
             transform="matrix(1.3333333,0,0,-1.3333333,730.3112,526.66667)"
             clip-path="url(#clipPath27)"
             id="path45" /></g><g
           opacity="0.300003"
           clip-path="url(#clipPath30)"
           id="g46"><path
             d="M 0,0 H -383.733"
             style="fill:none;stroke:#65dcb7 icc-color(sRGB-IEC61966-2, 0.1, 0.39599609, 0.86299133, 0.71798706);stroke-width:0.2;stroke-linecap:square;stroke-linejoin:miter;stroke-miterlimit:4;stroke-dasharray:none;stroke-opacity:1"
             transform="matrix(1.3333333,0,0,-1.3333333,730.3112,601.33333)"
             clip-path="url(#clipPath29)"
             id="path46" /></g><g
           opacity="0.300003"
           clip-path="url(#clipPath32)"
           id="g47"><path
             d="M 0,0 H -383.733"
             style="fill:none;stroke:#65dcb7 icc-color(sRGB-IEC61966-2, 0.1, 0.39599609, 0.86299133, 0.71798706);stroke-width:0.5;stroke-linecap:square;stroke-linejoin:miter;stroke-miterlimit:4;stroke-dasharray:none;stroke-opacity:1"
             transform="matrix(1.3333333,0,0,-1.3333333,730.3112,676)"
             clip-path="url(#clipPath31)"
             id="path47" /></g></g></g><g
       id="g68"
       transform="rotate(26.268266,70.291364,68.575531)"><path
         id="path53-7"
         style="fill:#b3d26a;fill-opacity:1;stroke:none;stroke-width:0.37907;stroke-linecap:round;stroke-linejoin:round;stroke-dasharray:none;stroke-opacity:1"
         d="m 67.733603,53.222591 a 41.353729,23.769222 0 0 0 -41.353548,23.769092 41.353729,23.769222 0 0 0 0.14211,1.248503 h 8.017599 a 33.349781,19.168727 0 0 1 -0.155546,-1.248503 33.349781,19.168727 0 0 1 33.349385,-19.168339 33.349781,19.168727 0 0 1 33.349897,19.168339 33.349781,19.168727 0 0 1 -0.0796,1.248503 h 7.94112 a 41.353729,23.769222 0 0 0 0.14263,-1.248503 41.353729,23.769222 0 0 0 -41.354067,-23.769092 z" /><g
         id="g53"
         style="display:inline"><rect
           style="fill:#ffffff;fill-opacity:1;stroke:#353f47;stroke-width:2;stroke-linecap:round;stroke-linejoin:round;stroke-dasharray:none;stroke-opacity:1"
           id="rect2"
           width="57.552162"
           height="10.791039"
           x="38.957783"
           y="35.335327"
           ry="2.5390649" /><path
           id="rect3"
           style="fill:#ffffff;fill-opacity:1;stroke:#353f47;stroke-width:2;stroke-linecap:round;stroke-linejoin:round;stroke-opacity:1"
           d="m 44.561789,46.337945 h 46.33795 c 2.109963,0 4.061301,1.713822 3.808598,3.808598 l -8.040373,66.650477 c -0.252703,2.09477 -1.698635,3.80859 -3.808598,3.80859 H 51.33263 c -2.109964,0 -3.595351,-1.70943 -3.808598,-3.80859 L 40.753191,50.146543 c -0.213248,-2.099159 1.698634,-3.808598 3.808598,-3.808598 z"
           sodipodi:nodetypes="sssssssss" /><path
           id="rect3-3"
           style="fill:#4191d3;fill-opacity:1;stroke:none;stroke-width:1.68061;stroke-linecap:round;stroke-linejoin:round;stroke-opacity:1"
           d="m 45.807023,65.511764 4.944401,48.670926 c 0.179193,1.76394 1.427305,3.20033 3.200322,3.20033 h 26.492439 c 1.773016,0 2.987974,-1.44008 3.200322,-3.20033 L 89.305143,67.257393 C 83.607044,64.990773 76.452007,65.174204 67.475468,69.969889 60.175809,73.869708 49.686184,67.997001 45.807023,65.511764 Z" /><g
           id="g52"><path
             id="path48"
             style="fill:#ffffff;fill-opacity:1;stroke:#353f47;stroke-width:1.55341;stroke-linecap:round;stroke-linejoin:round;stroke-dasharray:none;stroke-opacity:1"
             d="m 67.733865,21.14694 a 25.296561,13.792945 0 0 0 -25.29655,13.793185 25.296561,13.792945 0 0 0 0.02983,0.245997 H 93.001033 A 25.296561,13.792945 0 0 0 93.030412,34.940125 25.296561,13.792945 0 0 0 67.733865,21.14694 Z" /><path
             style="fill:#ffffff;fill-opacity:1;stroke:none;stroke-width:2.43723;stroke-linecap:round;stroke-linejoin:round;stroke-dasharray:none;stroke-opacity:1"
             d="m 80.872056,27.329243 0.182961,-5.711569 c 0,0 -0.327994,-0.801817 1.298532,-0.778189 1.626526,0.02361 3.525304,0.01467 3.525304,0.01467 0,0 1.031309,-0.02156 1.003236,0.854685 -0.02805,0.876227 -0.211256,8.288448 -0.211256,8.288448 z"
             id="path50" /><g
             id="g51"><rect
               style="fill:#ffffff;fill-opacity:1;stroke:none;stroke-width:2;stroke-linecap:round;stroke-linejoin:round;stroke-dasharray:none;stroke-opacity:1"
               id="rect50"
               width="14.81601"
               height="6.7024808"
               x="60.325859"
               y="19.225536"
               ry="2.5390649" /><rect
               style="fill:#4091d3;fill-opacity:1;stroke:#353f47;stroke-width:0.5;stroke-linecap:round;stroke-linejoin:round;stroke-dasharray:none;stroke-opacity:1"
               id="rect51"
               width="19.225536"
               height="3.5276213"
               x="58.121094"
               y="16.054342"
               ry="1.7638106" /></g></g></g><path
         id="path53"
         style="fill:#b3d26a;fill-opacity:1;stroke:none;stroke-width:0.37907;stroke-linecap:round;stroke-linejoin:round;stroke-dasharray:none;stroke-opacity:1"
         d="m 26.457054,76.210852 a 41.353729,23.769222 0 0 0 -0.077,0.675411 41.353729,23.769222 0 0 0 41.353548,23.769087 41.353729,23.769222 0 0 0 41.354068,-23.769087 41.353729,23.769222 0 0 0 -0.077,-0.675411 h -7.95559 a 33.349781,19.168727 0 0 1 0.0284,0.675411 33.349781,19.168727 0 0 1 -33.349908,19.168856 33.349781,19.168727 0 0 1 -33.349385,-19.168856 33.349781,19.168727 0 0 1 0.08423,-0.675411 z" /></g></g></svg>
